15_ID_stride4.mot
nRows=6
nColumns=38

name 15_ID_stride4.mot
datacolumns 38
datarows 6
range 2.4400000000 2.4650000000
endheader
time	pelvis_tilt_moment	pelvis_list_moment	pelvis_rotation_moment	pelvis_tx_force	pelvis_ty_force	pelvis_tz_force	hip_flexion_r_moment	hip_adduction_r_moment	hip_rotation_r_moment	knee_angle_r_moment	ankle_angle_r_moment	subtalar_angle_r_moment	mtp_angle_r_moment	hip_flexion_l_moment	hip_adduction_l_moment	hip_rotation_l_moment	knee_angle_l_moment	ankle_angle_l_moment	subtalar_angle_l_moment	mtp_angle_l_moment	lumbar_extension_moment	lumbar_bending_moment	lumbar_rotation_moment	arm_flex_r_moment	arm_add_r_moment	arm_rot_r_moment	elbow_flex_r_moment	pro_sup_r_moment	wrist_flex_r_moment	wrist_dev_r_moment	arm_flex_l_moment	arm_add_l_moment	arm_rot_l_moment	elbow_flex_l_moment	pro_sup_l_moment	wrist_flex_l_moment	wrist_dev_l_moment
        2.4400000000	       -9.7651369286	     -109.8056700345	      -17.6086714300	       67.9583288949	       48.9175691249	      -15.1794551248	     -119.4870271638	      -13.5724760036	       -0.9039393980	      -63.2591797442	       -0.3217839939	       -0.7915738964	        0.1285562903	       65.9513607640	      -14.9864373037	        4.6786187695	       21.4348571861	        4.7641345329	       -0.7956700665	        0.2793068054	      -38.6370907536	        3.6833239804	        4.4278672565	        1.0981992308	        0.1394679988	        0.2307519802	       -0.3274404818	        0.0176117102	        0.0212862232	        0.0600613720	       -0.2070851982	        0.1061051374	       -0.1721762522	       -0.6152610224	       -0.0040183832	       -0.0459594102	        0.0646545426	
        2.4450000000	       -1.3457677859	     -101.2906313554	      -21.0404411109	       23.0745309311	      191.4286445598	       63.6127653607	     -108.1333217004	       -6.2094903941	       -1.0289267764	      -57.8658723923	        1.6257692848	       -0.2421630028	        0.1844804448	       60.2937301392	      -12.7880003789	        4.9947946178	       21.3764684531	        4.7367016214	       -0.8285576487	        0.2801782013	      -28.7366428957	       -3.4768412914	        0.6608262405	       -0.7997522421	       -0.0865600912	        0.1096238740	       -0.2704723032	        0.0111162895	        0.0060700781	        0.0602147967	       -1.5395716097	        0.3952577301	        0.3387399743	       -0.5486564342	        0.0091514562	        0.0114157290	        0.0809731698	
        2.4500000000	       11.9967787783	      -44.6078678812	      -19.7935351495	      -20.1302534887	      306.6333329110	      100.1256157192	      -59.4398667219	       -6.0677920152	       -0.7302171218	      -30.8740495991	        6.4393130230	        3.1971679687	        0.2358235542	       56.0255052017	      -10.2451573178	        4.8272380608	       21.3974011885	        4.7142770066	       -0.8297547974	        0.2805029291	      -10.9549861207	      -12.2237648624	       -1.7625917571	       -2.8140135487	       -0.1129331546	        0.1566462707	       -0.0753544410	        0.0072545857	        0.0129369394	        0.0513974110	       -3.2748554609	        0.5996343283	        0.7657443680	       -0.3531335397	        0.0163713601	        0.0623674389	        0.0777307542	
        2.4550000000	       35.2004022563	       29.1001661346	      -16.6632459855	      -49.0275280726	      361.0590389265	      108.3212417298	      -11.6593497469	      -14.5325794146	        2.9117262017	       -3.5322310973	        5.6594245158	        7.9034984791	        0.2777888095	       55.5553146238	       -7.6054239284	        4.1774583482	       21.6034376608	        4.7210182842	       -0.8166491482	        0.2812625128	       10.7469482722	      -20.7298092240	       -2.1541795529	       -4.5044689923	       -0.0455200602	        0.3323173135	        0.2920680984	        0.0051506335	        0.0377350917	        0.0271345127	       -4.9741380930	        0.6627037831	        1.0151851183	        0.0004550774	        0.0161631907	        0.0994720266	        0.0586270858	
        2.4600000000	       65.5999051250	       81.8050442504	      -11.7750774904	      -57.2923921399	      367.6295725651	      104.0744776417	        6.2701719297	      -40.0879914477	       14.5054552447	       10.0705853608	       -4.8302510381	       13.0391612923	        0.3008369256	       57.7821390652	       -5.3968093258	        3.0244437976	       22.1610844067	        4.7678139169	       -0.7759864078	        0.2827365868	       31.3417584498	      -26.6319872441	       -1.6204769871	       -5.3566899052	        0.2274236967	        0.6260187409	        0.7915597067	        0.0039640633	        0.0790156011	       -0.0094104270	       -6.2051176510	        0.6572258477	        1.0723372710	        0.4832508073	        0.0089351261	        0.1117831753	        0.0173312353	
        2.4650000000	       92.7238747571	      122.4887477977	       -2.4362691822	      -51.4875683378	      308.5797624356	       59.2411962770	       11.0856835942	      -67.7541064269	       30.5061047447	       17.9168232300	      -24.0555945716	       21.2034022886	        0.3095203987	       63.8718548183	       -3.8250683341	        1.6585058974	       22.8725377529	        4.8366094304	       -0.7245130822	        0.2839619829	       48.2512783777	      -29.8587929206	        0.7691486885	       -5.6152298228	        0.5960098420	        0.9644211013	        1.3578675243	        0.0031505402	        0.1272473995	       -0.0530862069	       -6.9532952346	        0.5452676132	        0.9552738201	        1.0364163944	       -0.0059276665	        0.1114178541	       -0.0366920895	
